<svg xmlns="http://www.w3.org/2000/svg" viewBox="0 0 32 32">
  <circle cx="16" cy="16" r="14.5" fill="none" stroke="#2d3436" stroke-width="2"/>
  <circle cx="16" cy="16" r="11.5" fill="none" stroke="#7FB9EC" stroke-width="1.8"/>
  <g transform="translate(16,16) scale(0.78) translate(-16,-16)">
    <path d="M16 5c-2 3-6 7-6 12 0 5 3 9 6 10 3-1 6-5 6-10 0-5-4-9-6-12z" fill="#AAEC7F" stroke="#2d3436" stroke-width="1.9"/>
    <path d="M16 5c-2 3-6 7-6 12 0 5 3 9 6 10 3-1 6-5 6-10 0-5-4-9-6-12z" fill="#AAEC7F" stroke="#37FF00" stroke-width="0.8"/>
    <path d="M16 7v18M12.5 11.5l3.5 2.5 3.5-2.5M11.5 16l4.5 3 4.5-3M12.5 20.5l3.5 2 3.5-2" fill="none" stroke="#37FF00" stroke-width="1.2" stroke-linecap="round"/>
    <path d="M16 7v18M12.5 11.5l3.5 2.5 3.5-2.5M11.5 16l4.5 3 4.5-3M12.5 20.5l3.5 2 3.5-2" fill="none" stroke="#2d3436" stroke-width="0.4" stroke-linecap="round" stroke-opacity="0.5"/>
  </g>
</svg>
